<?xml version="1.0"?>
<svg width="456" height="456" xmlns="http://www.w3.org/2000/svg" xmlns:svg="http://www.w3.org/2000/svg" viewBox="-90 -90 702 702" fill="#f5f5dc" version="1.1" xml:space="preserve">
 <g class="layer">
  <title>Layer 1</title>
  <g id="SVGRepo_bgCarrier" stroke-width="0"/>
  <g id="SVGRepo_tracerCarrier" stroke-linecap="round" stroke-linejoin="round"/>
  <g id="SVGRepo_iconCarrier">
   <g id="svg_1">
    <g id="svg_2">
     <path d="m204.27,63.75c-18.1,0 -32.83,15.14 -32.83,33.74c0,4.43 3.49,8.02 7.8,8.02c4.31,0 7.8,-3.59 7.8,-8.02c0,-9.76 7.72,-17.7 17.23,-17.7c9.49,0 17.22,7.94 17.22,17.7c0,4.43 3.49,8.02 7.8,8.02s7.8,-3.59 7.8,-8.02c0,-18.6 -14.73,-33.74 -32.82,-33.74z" id="svg_3"/>
    </g>
   </g>
   <g id="svg_4">
    <g id="svg_5">
     <path d="m309.07,63.75c-18.1,0 -32.83,15.14 -32.83,33.74c0,4.43 3.49,8.02 7.8,8.02c4.31,0 7.8,-3.59 7.8,-8.02c0,-9.76 7.72,-17.7 17.23,-17.7c9.49,0 17.22,7.94 17.22,17.7c0,4.43 3.49,8.02 7.8,8.02c4.31,0 7.8,-3.59 7.8,-8.02c0,-18.6 -14.73,-33.74 -32.82,-33.74z" id="svg_6"/>
    </g>
   </g>
   <g id="svg_7">
    <g id="svg_8">
     <path d="m256.67,118.87c-18.1,0 -32.83,15.14 -32.83,33.74c0,4.43 3.49,8.02 7.8,8.02s7.8,-3.59 7.8,-8.02c0,-9.76 7.72,-17.7 17.23,-17.7c9.49,0 17.22,7.94 17.22,17.7c0,4.43 3.49,8.02 7.8,8.02c4.31,0 7.8,-3.59 7.8,-8.02c0,-18.6 -14.73,-33.74 -32.82,-33.74z" id="svg_9"/>
    </g>
   </g>
   <g id="svg_10">
    <g id="svg_11">
     <path d="m137.98,118.87c-18.1,0 -32.82,15.14 -32.82,33.74c0,4.43 3.49,8.02 7.8,8.02s7.8,-3.59 7.8,-8.02c0,-9.76 7.72,-17.7 17.22,-17.7c9.49,0 17.23,7.94 17.23,17.7c0,4.43 3.49,8.02 7.79,8.02c4.31,0 7.8,-3.59 7.8,-8.02c0,-18.6 -14.72,-33.74 -32.82,-33.74z" id="svg_12"/>
    </g>
   </g>
   <g id="svg_13">
    <g id="svg_14">
     <path d="m375.35,118.87c-18.09,0 -32.82,15.14 -32.82,33.74c0,4.43 3.49,8.02 7.8,8.02c4.31,0 7.8,-3.59 7.8,-8.02c0,-9.76 7.72,-17.7 17.22,-17.7c9.49,0 17.23,7.94 17.23,17.7c0,4.43 3.49,8.02 7.8,8.02c4.3,0 7.79,-3.59 7.79,-8.02c0,-18.6 -14.72,-33.74 -32.82,-33.74z" id="svg_15"/>
    </g>
   </g>
   <g id="svg_16">
    <g id="svg_17">
     <path d="m296.59,339.31c-3.79,-17.59 -20.14,-43.03 -39.78,-43.03l-0.28,0l0,0c-19.63,0 -35.98,25.44 -39.78,43.03c-3.62,16.77 4.32,22.58 7.91,24.3c6.64,3.19 14.38,3.75 22.45,1.65c3.07,-0.8 6.24,-1.2 9.43,-1.2l0.28,0c3.19,0 6.35,0.4 9.43,1.2c3.19,0.83 6.35,1.25 9.4,1.25c0,0 0,0 0,0c4.65,0 9.05,-0.97 13.06,-2.9c3.58,-1.72 11.52,-7.53 7.9,-24.3zm-14.89,9.95c-1.86,0.82 -3.84,1.22 -6.07,1.22c-1.75,0 -3.63,-0.26 -5.57,-0.76c-4.32,-1.13 -8.77,-1.7 -13.25,-1.7l-0.28,0c-4.47,0 -8.93,0.57 -13.25,1.7c-4.39,1.14 -8.34,1 -11.64,-0.46c-0.68,-2.05 -0.03,-9.84 5.77,-20.05c5.74,-10.1 13.42,-16.89 19.12,-16.89l0.28,0c5.69,0 13.38,6.79 19.12,16.89c5.8,10.21 6.45,18 5.77,20.05z" id="svg_18"/>
    </g>
   </g>
   <g id="svg_19">
    <g id="svg_20">
     <path d="m253.05,253.67c-4.21,-9.63 -13.57,-15.85 -23.84,-15.85c-3.72,0 -7.31,0.8 -10.72,2.37c-13.15,6.09 -19.03,22.03 -13.11,35.54c4.79,10.93 17.25,19.49 28.36,19.49l0,0c3.07,0 5.98,-0.62 8.64,-1.85c13.35,-6.19 16.65,-26.06 10.67,-39.7zm-17.07,25.07c-0.63,0.29 -1.38,0.44 -2.24,0.44l0,0c-5.01,0 -11.88,-4.88 -14.13,-10.04c-1.16,-2.63 -1.25,-5.58 -0.24,-8.29c0.99,-2.7 2.96,-4.85 5.52,-6.03c1.37,-0.64 2.83,-0.96 4.32,-0.96c4.14,0 7.92,2.51 9.62,6.39c2.86,6.54 1.31,16.56 -2.85,18.49z" id="svg_21"/>
    </g>
   </g>
   <g id="svg_22">
    <g id="svg_23">
     <path d="m208.84,284.97c-3.87,-2.64 -8.36,-4.03 -12.98,-4.03c-7.91,0 -15.23,4.03 -19.6,10.8c-7.17,11.1 -4.22,26.13 6.58,33.5c5.03,3.42 12.14,5.47 19.03,5.47l0,0c8.48,0 15.15,-3.1 18.78,-8.73c7.8,-12.08 -1.95,-30.27 -11.81,-37.01zm-1.19,28.14c-0.39,0.6 -2.3,1.56 -5.78,1.56l0,0c-3.72,0 -8,-1.15 -10.41,-2.8c-3.64,-2.47 -4.63,-7.53 -2.22,-11.26c1.47,-2.28 3.94,-3.64 6.6,-3.64c1.55,0 3.05,0.47 4.36,1.36c5.18,3.54 8.84,12.62 7.44,14.78z" id="svg_24"/>
    </g>
   </g>
   <g id="svg_25">
    <g id="svg_26">
     <path d="m294.84,240.19c-3.39,-1.57 -7,-2.37 -10.72,-2.37c-10.27,0 -19.63,6.22 -23.85,15.84c-2.72,6.23 -3.54,14.2 -2.18,21.34c1.67,8.78 6.23,15.3 12.86,18.36c2.66,1.23 5.56,1.85 8.64,1.85c11.12,0 23.58,-8.55 28.36,-19.48c5.91,-13.51 0.04,-29.46 -13.11,-35.54zm-1.12,28.96c-2.26,5.15 -9.12,10.03 -14.13,10.03c-0.86,0 -1.6,-0.15 -2.23,-0.44c-2.64,-1.22 -3.65,-5.17 -3.96,-6.82c-0.75,-3.94 -0.33,-8.41 1.1,-11.67c1.7,-3.88 5.48,-6.39 9.62,-6.39c1.49,0 2.95,0.32 4.32,0.96c2.57,1.19 4.53,3.33 5.52,6.04c1,2.7 0.91,5.65 -0.24,8.29z" id="svg_27"/>
    </g>
   </g>
   <g id="svg_28">
    <g id="svg_29">
     <path d="m337.07,291.74c-4.37,-6.77 -11.69,-10.8 -19.6,-10.8c-4.63,0 -9.11,1.39 -12.98,4.03c-4.9,3.35 -9.44,9.13 -12.15,15.47c-3.48,8.16 -3.37,15.81 0.34,21.55c3.63,5.62 10.3,8.72 18.78,8.72c6.9,0 14.01,-2.05 19.03,-5.47c10.8,-7.37 13.74,-22.4 6.58,-33.5zm-15.21,20.13c-2.41,1.65 -6.69,2.8 -10.41,2.8c-3.48,0 -5.39,-0.96 -5.78,-1.56c-0.4,-0.61 -0.5,-2.85 0.94,-6.22c1.72,-4.02 4.5,-7.19 6.5,-8.56c1.3,-0.89 2.81,-1.36 4.36,-1.36c2.67,0 5.14,1.36 6.6,3.64c2.41,3.73 1.42,8.78 -2.22,11.26z" id="svg_30"/>
    </g>
   </g>
   <g id="svg_31">
    <g id="svg_32">
     <path d="m504.03,276.6c-7.12,-41.82 -33.49,-97.21 -46.75,-123.22c0.36,-0.55 0.72,-1.1 1.06,-1.66c8.74,-14.43 8.38,-27.2 6.53,-35.36c-3.74,-16.57 -17.3,-29.06 -31.52,-29.06c-3.23,0 -6.41,0.32 -9.54,0.94c-7.27,-19.73 -25.84,-33.32 -46.93,-33.32c-2.96,0 -5.89,0.26 -8.77,0.79c-6.5,-21.02 -25.72,-35.96 -47.82,-35.96c-8.07,0 -15.85,1.94 -22.9,5.67c-9.33,-13.4 -24.28,-21.42 -40.72,-21.42c-16.45,0 -31.4,8.02 -40.73,21.42c-7.03,-3.73 -14.81,-5.67 -22.9,-5.67c-22.09,0 -41.31,14.94 -47.82,35.96c-2.88,-0.53 -5.81,-0.79 -8.77,-0.79c-21.09,0 -39.66,13.59 -46.92,33.32c-3.13,-0.62 -6.32,-0.94 -9.55,-0.94c-14.22,0 -27.78,12.49 -31.52,29.06c-1.85,8.16 -2.22,20.93 6.54,35.37c0.33,0.55 0.69,1.09 1.05,1.64c-7.51,14.74 -19.61,39.68 -29.85,66.2c-1.59,4.11 0.37,8.78 4.38,10.41c0.94,0.38 1.92,0.57 2.87,0.57c3.1,0 6.04,-1.92 7.26,-5.07c8.79,-22.76 19.02,-44.38 26.35,-59.07c0.88,0.83 1.78,1.65 2.71,2.47c0.03,0.03 0.06,0.05 0.09,0.08c0.02,0.01 0.04,0.03 0.06,0.05c0.66,0.57 1.33,1.14 2.01,1.7c0.04,0.03 0.07,0.05 0.11,0.08c0.05,0.04 0.1,0.08 0.15,0.12c1.66,1.35 3.4,2.68 5.21,3.98c0.15,0.1 0.29,0.21 0.44,0.31c0.05,0.03 0.09,0.06 0.14,0.09c0.62,0.44 1.25,0.88 1.9,1.31c0.17,0.12 0.34,0.24 0.52,0.36c0.14,0.09 0.27,0.17 0.41,0.26c0.58,0.39 1.18,0.78 1.78,1.16c0.16,0.1 0.31,0.2 0.48,0.31c0.32,0.2 0.66,0.41 1.01,0.62c0.46,0.29 0.91,0.57 1.38,0.85c0.13,0.08 0.25,0.16 0.38,0.23c0.36,0.22 0.73,0.43 1.1,0.64c0.5,0.29 0.99,0.59 1.5,0.88c0.1,0.05 0.19,0.11 0.29,0.17c0.58,0.33 1.2,0.66 1.86,1.02c0.33,0.18 0.65,0.36 0.98,0.54c0.06,0.03 0.12,0.06 0.18,0.09c0.93,0.5 1.89,1 2.86,1.49c0.06,0.03 0.12,0.06 0.18,0.09c0.01,0.01 0.02,0.01 0.02,0.02c0.89,0.47 1.84,0.97 2.91,1.51c26.15,13.35 64.56,22.74 108.26,26.86c0,0 0,0 0,0.01c10.56,1.16 21.09,1.97 31.29,2.39c21.86,0.91 43.98,0.23 65.78,-2c0.87,-0.07 1.7,-0.16 2.56,-0.23c1.85,-0.17 3.71,-0.35 5.54,-0.53c1.74,-0.18 3.46,-0.36 5.16,-0.56c0.73,-0.08 1.46,-0.16 2.19,-0.25c2.45,-0.28 4.88,-0.58 7.29,-0.9c0.78,-0.11 1.5,-0.33 2.18,-0.63c0.03,-0.02 0.05,-0.03 0.08,-0.04c0.15,-0.07 0.28,-0.15 0.43,-0.22c0.08,-0.05 0.17,-0.09 0.25,-0.14c0.16,-0.1 0.31,-0.2 0.46,-0.31c0.06,-0.04 0.12,-0.08 0.18,-0.12c0.16,-0.11 0.29,-0.23 0.44,-0.36c0.05,-0.04 0.11,-0.08 0.15,-0.12c0.13,-0.12 0.24,-0.24 0.36,-0.36c0.06,-0.06 0.13,-0.12 0.18,-0.18c0.1,-0.11 0.19,-0.24 0.29,-0.36c0.07,-0.08 0.14,-0.15 0.19,-0.23c0.11,-0.15 0.21,-0.3 0.31,-0.46c0.04,-0.06 0.08,-0.11 0.12,-0.17c0.12,-0.19 0.21,-0.39 0.32,-0.58c0.01,-0.03 0.03,-0.06 0.04,-0.09c0.22,-0.45 0.4,-0.92 0.53,-1.41c0,-0.01 0.01,-0.02 0.01,-0.04c0.27,-1 0.36,-2.08 0.21,-3.18c-0.02,-0.18 -0.06,-0.36 -0.1,-0.54c-0.01,-0.09 -0.02,-0.18 -0.04,-0.26c-0.01,-0.02 -0.01,-0.04 -0.02,-0.05c-0.86,-3.67 -4.11,-6.23 -7.79,-6.13c-0.26,0.01 -0.53,0.03 -0.79,0.07c-0.03,0 -0.06,0 -0.09,0.01c-2.31,0.31 -4.63,0.59 -6.96,0.86c-0.73,0.09 -1.46,0.17 -2.19,0.26c-1.62,0.18 -3.25,0.35 -4.88,0.52c-1.89,0.19 -3.8,0.37 -5.75,0.55c-15.32,1.38 -31.12,2.09 -47.21,2.09c-16,0 -31.64,-0.69 -46.62,-2c-0.84,-0.09 -1.67,-0.17 -2.51,-0.26c-0.04,0 -0.08,-0.01 -0.12,-0.01c-41.33,-3.9 -77.38,-12.65 -101.56,-24.64l-0.42,-0.2c-0.37,-0.19 -0.73,-0.37 -1.09,-0.56c-0.81,-0.41 -1.6,-0.82 -2.38,-1.24c-0.01,-0.01 -0.03,-0.02 -0.04,-0.03c-0.04,-0.01 -0.07,-0.03 -0.11,-0.05c-0.03,-0.01 -0.06,-0.03 -0.1,-0.05c-0.08,-0.04 -0.17,-0.09 -0.24,-0.13c-0.83,-0.41 -1.63,-0.83 -2.42,-1.25c-0.7,-0.38 -1.4,-0.76 -2.09,-1.15c-0.12,-0.06 -0.23,-0.13 -0.34,-0.19c-24.5,-13.78 -36.76,-31.57 -32.98,-48.26c2.32,-10.28 10.29,-16.65 16.34,-16.65c4.17,0 8.26,0.76 12.15,2.26c2.15,0.83 4.54,0.65 6.55,-0.5c2,-1.15 3.41,-3.15 3.85,-5.46c3.16,-16.62 17.43,-28.68 33.92,-28.68c4.1,0 8.1,0.73 11.91,2.16c2.23,0.84 4.71,0.59 6.73,-0.67c2.02,-1.26 3.38,-3.4 3.7,-5.81c2.25,-17.59 16.98,-30.86 34.26,-30.86c7.58,0 14.77,2.48 20.81,7.16c1.86,1.45 4.25,1.96 6.52,1.4c2.27,-0.56 4.17,-2.13 5.19,-4.29c5.85,-12.34 17.76,-20.01 31.11,-20.01c13.34,0 25.26,7.67 31.11,20.01c1.02,2.16 2.92,3.73 5.19,4.29c2.27,0.56 4.66,0.05 6.52,-1.4c6.03,-4.68 13.23,-7.16 20.81,-7.16c17.27,0 32,13.27 34.26,30.86c0.31,2.41 1.67,4.55 3.7,5.81c2.02,1.26 4.5,1.51 6.72,0.67c3.8,-1.44 7.81,-2.16 11.91,-2.16c16.5,0 30.77,12.06 33.93,28.67c0.44,2.32 1.85,4.32 3.85,5.47c2,1.15 4.4,1.33 6.55,0.5c3.89,-1.5 7.98,-2.26 12.15,-2.26c6.05,0 14.01,6.37 16.34,16.65c4.04,17.82 -10.2,36.87 -38.09,50.98c-0.06,0.04 -0.13,0.07 -0.19,0.11c-4.64,2.51 -9.85,4.91 -15.55,7.18c-0.26,0.1 -0.53,0.21 -0.79,0.31c-13.08,5.13 -28.73,9.55 -46.2,13.01c-4.23,0.84 -6.99,5.04 -6.18,9.39c0.77,4.11 4.47,6.87 8.44,6.46c0.27,-0.03 0.55,-0.06 0.83,-0.12c19.31,-3.81 36.53,-8.77 51.19,-14.77c3.42,-1.25 6.56,-2.48 9.56,-3.78c8.9,-3.82 17.52,-9.73 23.24,-13.86c0.01,-0.01 0.1,-0.06 0.11,-0.07c0.02,-0.02 0.11,-0.08 0.13,-0.09l0.17,-0.12c0.11,-0.08 0.26,-0.19 0.46,-0.34c1.28,-0.93 2.52,-1.88 3.73,-2.85c0.13,-0.1 0.26,-0.2 0.38,-0.3c1.57,-1.24 3.55,-2.84 5.5,-4.5c13.53,27.1 36.11,76.17 42.32,113.03c0.04,0.22 0.08,0.44 0.14,0.66c0.81,3.17 1.22,6.36 1.22,9.51c-0.01,0.16 -0.02,0.32 -0.02,0.49c0,0.11 0,0.22 0,0.33c0.01,0.22 0,0.41 -0.01,0.57c-0.01,0.12 -0.02,0.24 -0.03,0.36c-1.13,23.75 -25.71,47.51 -67.42,65.2c-44.44,18.84 -103.35,29.21 -165.91,29.21c-62.36,0 -121.14,-10.32 -165.54,-29.06c-41.7,-17.59 -66.4,-41.27 -67.77,-64.96c-0.02,-0.19 -0.03,-0.39 -0.06,-0.59c-0.05,-0.34 -0.06,-0.66 -0.03,-0.99c0.01,-0.2 0.02,-0.4 0.02,-0.6c0,-3.02 0.38,-6.09 1.13,-9.15c0.05,-0.2 0.09,-0.4 0.13,-0.61c1.46,-8.81 4,-18.98 7.56,-30.23c1.33,-4.21 -0.91,-8.74 -5.01,-10.1c-4.1,-1.37 -8.5,0.93 -9.83,5.14c-3.74,11.87 -6.45,22.7 -8.04,32.2c-0.99,4.14 -1.5,8.33 -1.53,12.47c-0.07,1.22 -0.03,2.46 0.11,3.69c1.92,30.41 29.39,58.31 77.41,78.57c46.23,19.51 107.12,30.26 171.46,30.26c64.55,0 125.57,-10.81 171.85,-30.42c48.16,-20.42 75.52,-48.5 77.05,-79.09c0.06,-0.66 0.08,-1.35 0.07,-2.05c0.01,-0.23 0.02,-0.45 0.02,-0.68c0,-4.37 -0.55,-8.8 -1.64,-13.19z" id="svg_33"/>
    </g>
   </g>
  </g>
  <text font-family="Monospace" font-size="30" id="svg_34" stroke="#000000" stroke-width="0" text-anchor="middle" transform="matrix(4.24367 0 0 3.6734 154.006 -1110.21)" x="24.05" xml:space="preserve" y="436.77">ANIFOOD</text>
 </g>

</svg>